{
    "asset": {
        "version": "2.0",
        "generator": "Open Asset Import Library (assimp v5.2.cf7d3637)"
    },
    "extensionsUsed": [
        "KHR_materials_volume",
        "FB_ngon_encoding"
    ],
    "accessors": [
        {
            "bufferView": 0,
            "byteOffset": 0,
            "componentType": 5126,
            "count": 34752,
            "type": "VEC3",
            "max": [
                3.7624497413635256,
                8.867549896240235,
                1.0
            ],
            "min": [
                -3.7624497413635256,
                -3.7438347339630129,
                -2.641397714614868
            ]
        },
        {
            "bufferView": 1,
            "byteOffset": 0,
            "componentType": 5126,
            "count": 34752,
            "type": "VEC3",
            "max": [
                1.0,
                1.0,
                1.0
            ],
            "min": [
                -1.0,
                -1.0,
                -1.0
            ]
        },
        {
            "bufferView": 2,
            "byteOffset": 0,
            "componentType": 5125,
            "count": 34752,
            "type": "SCALAR",
            "max": [
                34751
            ],
            "min": [
                0
            ]
        },
        {
            "bufferView": 3,
            "byteOffset": 0,
            "componentType": 5126,
            "count": 24384,
            "type": "VEC3",
            "max": [
                0.39584752917289736,
                0.20306415855884553,
                1.1920928955078126e-7
            ],
            "min": [
                -0.39584752917289736,
                -0.33205458521842959,
                -0.02324886992573738
            ]
        },
        {
            "bufferView": 4,
            "byteOffset": 0,
            "componentType": 5126,
            "count": 24384,
            "type": "VEC3",
            "max": [
                0.9999624490737915,
                1.0,
                1.0
            ],
            "min": [
                -0.9999624490737915,
                -1.0,
                -0.9744275212287903
            ]
        },
        {
            "bufferView": 5,
            "byteOffset": 0,
            "componentType": 5125,
            "count": 24384,
            "type": "SCALAR",
            "max": [
                24383
            ],
            "min": [
                0
            ]
        },
        {
            "bufferView": 6,
            "byteOffset": 0,
            "componentType": 5126,
            "count": 107712,
            "type": "VEC3",
            "max": [
                0.9939954280853272,
                0.9939954280853272,
                1.8863112926483155
            ],
            "min": [
                -0.9939954280853272,
                -0.9939954280853272,
                -1.8270866870880128
            ]
        },
        {
            "bufferView": 7,
            "byteOffset": 0,
            "componentType": 5126,
            "count": 107712,
            "type": "VEC3",
            "max": [
                1.0,
                1.0,
                1.0
            ],
            "min": [
                -1.0,
                -1.0,
                -1.0
            ]
        },
        {
            "bufferView": 8,
            "byteOffset": 0,
            "componentType": 5126,
            "count": 107712,
            "type": "VEC2",
            "max": [
                0.9654078483581543,
                0.9998344779014587
            ],
            "min": [
                0.00016551004955545068,
                0.00967550277709961
            ]
        },
        {
            "bufferView": 9,
            "byteOffset": 0,
            "componentType": 5125,
            "count": 107712,
            "type": "SCALAR",
            "max": [
                107711
            ],
            "min": [
                0
            ]
        }
    ],
    "buffers": [
        {
            "byteLength": 5533440,
            "uri": "result.bin"
        }
    ],
    "bufferViews": [
        {
            "buffer": 0,
            "byteOffset": 0,
            "byteLength": 417024,
            "target": 34962
        },
        {
            "buffer": 0,
            "byteOffset": 417024,
            "byteLength": 417024,
            "target": 34962
        },
        {
            "buffer": 0,
            "byteOffset": 834048,
            "byteLength": 139008,
            "target": 34963
        },
        {
            "buffer": 0,
            "byteOffset": 973056,
            "byteLength": 292608,
            "target": 34962
        },
        {
            "buffer": 0,
            "byteOffset": 1265664,
            "byteLength": 292608,
            "target": 34962
        },
        {
            "buffer": 0,
            "byteOffset": 1558272,
            "byteLength": 97536,
            "target": 34963
        },
        {
            "buffer": 0,
            "byteOffset": 1655808,
            "byteLength": 1292544,
            "target": 34962
        },
        {
            "buffer": 0,
            "byteOffset": 2948352,
            "byteLength": 1292544,
            "target": 34962
        },
        {
            "buffer": 0,
            "byteOffset": 4240896,
            "byteLength": 861696,
            "target": 34962
        },
        {
            "buffer": 0,
            "byteOffset": 5102592,
            "byteLength": 430848,
            "target": 34963
        }
    ],
    "images": [
        {
            "uri": "C:\\Users\\boseeef\\Desktop\\Soda Can 3D\\Pepsi_UV3.png"
        }
    ],
    "materials": [
        {
            "name": "Material",
            "pbrMetallicRoughness": {
                "baseColorFactor": [
                    0.64000004529953,
                    0.64000004529953,
                    0.64000004529953,
                    1.0
                ],
                "metallicFactor": 0.0,
                "roughnessFactor": 0.690034806728363
            }
        },
        {
            "name": "DefaultMaterial",
            "pbrMetallicRoughness": {
                "baseColorFactor": [
                    0.800000011920929,
                    0.800000011920929,
                    0.800000011920929,
                    1.0
                ],
                "metallicFactor": 0.0
            }
        },
        {
            "name": "2",
            "pbrMetallicRoughness": {
                "baseColorTexture": {
                    "index": 0
                },
                "baseColorFactor": [
                    0.64000004529953,
                    0.64000004529953,
                    0.64000004529953,
                    1.0
                ],
                "metallicFactor": 0.0,
                "roughnessFactor": 0.690034806728363
            }
        }
    ],
    "meshes": [
        {
            "name": "Cylinder",
            "primitives": [
                {
                    "extensions": {
                        "FB_ngon_encoding": {}
                    },
                    "mode": 4,
                    "material": 0,
                    "indices": 2,
                    "attributes": {
                        "POSITION": 0,
                        "NORMAL": 1
                    }
                }
            ]
        },
        {
            "name": "Cylinder.000",
            "primitives": [
                {
                    "extensions": {
                        "FB_ngon_encoding": {}
                    },
                    "mode": 4,
                    "material": 1,
                    "indices": 5,
                    "attributes": {
                        "POSITION": 3,
                        "NORMAL": 4
                    }
                }
            ]
        },
        {
            "name": "Cylinder.002",
            "primitives": [
                {
                    "extensions": {
                        "FB_ngon_encoding": {}
                    },
                    "mode": 4,
                    "material": 2,
                    "indices": 9,
                    "attributes": {
                        "POSITION": 6,
                        "NORMAL": 7,
                        "TEXCOORD_0": 8
                    }
                }
            ]
        }
    ],
    "nodes": [
        {
            "name": "RootNode",
            "children": [
                1,
                2,
                3
            ]
        },
        {
            "name": "Bottle Cap",
            "matrix": [
                15.113000869750977,
                0.0,
                0.0,
                0.0,
                0.0,
                -0.0000024622204364277424,
                -15.113000869750977,
                0.0,
                0.0,
                2.7702887058258058,
                -4.513373426107137e-7,
                0.0,
                0.0,
                457.53289794921877,
                -0.3583669662475586,
                1.0
            ],
            "mesh": 0,
            "extras": {
                "UserProperties": "",
                "IsNull": false,
                "DefaultAttributeIndex": 0,
                "InheritType": 1
            }
        },
        {
            "name": "open Area",
            "matrix": [
                249.08358764648438,
                0.0,
                0.0,
                0.0,
                0.0,
                -0.000040580867789685729,
                -249.08358764648438,
                0.0,
                0.0,
                249.08358764648438,
                -0.000040580867789685729,
                0.0,
                9.897693189486745e-7,
                449.70025634765627,
                67.35932922363281,
                1.0
            ],
            "mesh": 1,
            "extras": {
                "UserProperties": "",
                "IsNull": false,
                "DefaultAttributeIndex": 0,
                "InheritType": 1
            }
        },
        {
            "name": "Can",
            "matrix": [
                249.08358764648438,
                0.0,
                0.0,
                0.0,
                0.0,
                -0.000040580867789685729,
                -249.08358764648438,
                0.0,
                0.0,
                249.08358764648438,
                -0.000040580867789685729,
                0.0,
                0.0,
                0.0,
                0.0,
                1.0
            ],
            "mesh": 2,
            "extras": {
                "UserProperties": "",
                "IsNull": false,
                "DefaultAttributeIndex": 0,
                "InheritType": 1
            }
        }
    ],
    "samplers": [
        {}
    ],
    "scenes": [
        {
            "nodes": [
                0
            ]
        }
    ],
    "textures": [
        {
            "source": 0,
            "sampler": 0
        }
    ],
    "scene": 0
}